<svg width="43" height="42" viewBox="0 0 43 42" fill="none" xmlns="http://www.w3.org/2000/svg">
<path fill-rule="evenodd" clip-rule="evenodd" d="M21.5 38C30.8888 38 38.5 30.3888 38.5 21C38.5 11.6112 30.8888 4 21.5 4C12.1112 4 4.5 11.6112 4.5 21C4.5 30.3888 12.1112 38 21.5 38ZM21.5 42C33.098 42 42.5 32.598 42.5 21C42.5 9.40202 33.098 0 21.5 0C9.90202 0 0.5 9.40202 0.5 21C0.5 32.598 9.90202 42 21.5 42Z" fill="#8CCC8B"/>
<path fill-rule="evenodd" clip-rule="evenodd" d="M31.8762 12.052L20.5575 33.5502L11.8228 21.6668L15.0458 19.2978L19.9954 26.0317L28.3368 10.1885L31.8762 12.052Z" fill="#8CCC8B"/>
</svg>
