<svg width="42" height="42" viewBox="0 0 42 42" fill="none" xmlns="http://www.w3.org/2000/svg">
<path fill-rule="evenodd" clip-rule="evenodd" d="M21.1924 18.364L28.9706 10.5858L31.799 13.4142L24.0208 21.1924L31.799 28.9706L28.9706 31.799L21.1924 24.0208L13.4142 31.799L10.5858 28.9706L18.364 21.1924L10.5858 13.4142L13.4143 10.5858L21.1924 18.364Z" fill="#FF6464"/>
<path fill-rule="evenodd" clip-rule="evenodd" d="M21 38C30.3888 38 38 30.3888 38 21C38 11.6112 30.3888 4 21 4C11.6112 4 4 11.6112 4 21C4 30.3888 11.6112 38 21 38ZM21 42C32.598 42 42 32.598 42 21C42 9.40202 32.598 0 21 0C9.40202 0 0 9.40202 0 21C0 32.598 9.40202 42 21 42Z" fill="#FF6464"/>
</svg>
