<svg width="26" height="26" viewBox="0 0 26 26" fill="none" xmlns="http://www.w3.org/2000/svg">
<path d="M23.6348 2.44973H16.6467V1.21646C16.6467 0.545696 16.1018 0 15.432 0H10.568C9.89817 0 9.35329 0.545696 9.35329 1.21646V2.44969H2.36523C2.02728 2.44969 1.75336 2.7236 1.75336 3.06155C1.75336 3.3995 2.02728 3.67341 2.36523 3.67341H3.49927L4.27257 23.8029C4.31989 25.0349 5.32278 26 6.55579 26H19.4442C20.6773 26 21.6802 25.0349 21.7274 23.8029L22.5006 3.67336H23.6348C23.9726 3.67336 24.2465 3.39945 24.2465 3.0615C24.2465 2.72366 23.9726 2.44973 23.6348 2.44973ZM10.577 1.22368H15.423V2.44969H10.577V1.22368ZM20.5046 23.7559C20.4827 24.3281 20.0169 24.7763 19.4442 24.7763H6.55579C5.98318 24.7763 5.51742 24.3281 5.49538 23.7559L4.72391 3.67341H21.2762L20.5046 23.7559Z" fill="#0054A6"/>
<path d="M9.27418 9.22044C9.26773 8.88656 8.99519 8.62036 8.66268 8.62036C8.65871 8.62036 8.65465 8.62036 8.65069 8.62047C8.3129 8.62697 8.04421 8.90617 8.05071 9.24396L8.24271 19.2293C8.24912 19.5631 8.52176 19.8294 8.85422 19.8294C8.85818 19.8294 8.86225 19.8294 8.8662 19.8292C9.20406 19.8227 9.47269 19.5436 9.46619 19.2058L9.27418 9.22044Z" fill="#0054A6"/>
<path d="M12.9999 8.62036C12.662 8.62036 12.3881 8.89427 12.3881 9.23223V19.2176C12.3881 19.5555 12.662 19.8294 12.9999 19.8294C13.3379 19.8294 13.6118 19.5555 13.6118 19.2176V9.23223C13.6118 8.89432 13.3379 8.62036 12.9999 8.62036Z" fill="#0054A6"/>
<path d="M17.3492 8.62051C17.0126 8.61305 16.7322 8.88264 16.7257 9.22049L16.5337 19.2058C16.5272 19.5436 16.7958 19.8227 17.1336 19.8292C17.1377 19.8294 17.1417 19.8294 17.1456 19.8294C17.478 19.8294 17.7507 19.5631 17.7571 19.2293L17.9491 9.24401C17.9556 8.90611 17.687 8.62696 17.3492 8.62051Z" fill="#0054A6"/>
</svg>
