<svg width="70" height="57" viewBox="0 0 70 57" fill="none" xmlns="http://www.w3.org/2000/svg">
    <style>
        path {
            fill: #0054A6;
        }
        @media (prefers-color-scheme: dark) {
            path {
                fill: #ffffff;
            }
        }
    </style>
    <path fill-rule="evenodd" clip-rule="evenodd" d="M28.4999 0.585815L36.4999 8.58581L44.4999 0.585815L52.4999 8.58581L60.4999 0.585815L69.8179 9.90384L60.9999 18.7219L53.0961 10.8181L35.4141 28.5L53.0961 46.182L60.9999 38.2782L69.8179 47.0962L60.4999 56.4142L52.4999 48.4142L44.4999 56.4142L36.4999 48.4142L28.4999 56.4142L0.585693 28.5L28.4999 0.585815ZM21.0961 10.8181L3.41412 28.5L21.0961 46.182L27.6819 39.5962L16.5857 28.5L27.6819 17.4038L21.0961 10.8181ZM37.0961 10.8181L19.4141 28.5L37.0961 46.182L43.6819 39.5962L32.5857 28.5L43.6819 17.4038L37.0961 10.8181Z" fill="#0054A6"/>
</svg>
